<svg xmlns="http://www.w3.org/2000/svg" version="1.1" xmlns:xlink="http://www.w3.org/1999/xlink" xmlns:svgjs="http://svgjs.dev/svgjs" width="1000" height="1000" viewBox="0 0 1000 1000"><rect width="1000" height="1000" fill="#000000"></rect><g transform="matrix(0.7,0,0,0.7,149.57575757575756,376.1622488546267)"><svg viewBox="0 0 396 140" data-background-color="#ffffff" preserveAspectRatio="xMidYMid meet" height="353" width="1000" xmlns="http://www.w3.org/2000/svg" xmlns:xlink="http://www.w3.org/1999/xlink"><g id="tight-bounds" transform="matrix(1,0,0,1,0.2400000000000091,0.1630318104098194)"><svg viewBox="0 0 395.52 139.6739363791804" height="139.6739363791804" width="395.52"><g><svg viewBox="0 0 395.52 139.6739363791804" height="139.6739363791804" width="395.52"><g transform="matrix(1,0,0,1,0,95.85664477707317)"><svg viewBox="0 0 395.52 43.81729160210722" height="43.81729160210722" width="395.52"><g id="textblocktransform"><svg viewBox="0 0 395.52 43.81729160210722" height="43.81729160210722" width="395.52" id="textblock"><g><svg viewBox="0 0 395.52 43.81729160210722" height="43.81729160210722" width="395.52"><g transform="matrix(1,0,0,1,0,0)"><svg width="395.52" viewBox="0 -35.75 326.5299987792969 35.75" height="43.81729160210722" data-palette-color="url(#4fc2b4d8-02fb-45fd-bb26-05d2a1b461b0)"><g class="wordmark-text-0" data-fill-palette-color="primary" id="text-0"></g></svg></g></svg></g></svg></g></svg></g><g transform="matrix(1,0,0,1,160.17588854372246,0)"><svg viewBox="0 0 75.16822291255504 75.16822291255504" height="75.16822291255504" width="75.16822291255504"><g><svg></svg></g><g id="icon-0"><svg viewBox="0 0 75.16822291255504 75.16822291255504" height="75.16822291255504" width="75.16822291255504"><g></g><g transform="matrix(1,0,0,1,18.15340570395404,20.283720955779785)"><svg viewBox="0 0 38.86141150464696 34.60078100099547" height="34.60078100099547" width="38.86141150464696"><g><svg xmlns="http://www.w3.org/2000/svg" xmlns:xlink="http://www.w3.org/1999/xlink" version="1.1" x="0" y="0" viewBox="14.600000381469727 17.53370475769043 75.0999984741211 66.86629486083984" enable-background="new 0 0 100 100" xml:space="preserve" height="34.60078100099547" width="38.86141150464696" class="icon-s-0" data-fill-palette-color="accent" id="s-0"></svg></g></svg></g></svg></g></svg></g><g></g></svg></g><defs></defs><mask id="fd86f965-fe10-4e49-a07b-0147afa660f9"><g id="SvgjsG1730"><svg viewBox="0 0 395.52 139.6739363791804" height="139.6739363791804" width="395.52"><g><svg viewBox="0 0 395.52 139.6739363791804" height="139.6739363791804" width="395.52"><g transform="matrix(1,0,0,1,0,95.85664477707317)"><svg viewBox="0 0 395.52 43.81729160210722" height="43.81729160210722" width="395.52"><g id="SvgjsG1729"><svg viewBox="0 0 395.52 43.81729160210722" height="43.81729160210722" width="395.52" id="SvgjsSvg1728"><g><svg viewBox="0 0 395.52 43.81729160210722" height="43.81729160210722" width="395.52"><g transform="matrix(1,0,0,1,0,0)"><svg width="395.52" viewBox="0 -35.75 326.5299987792969 35.75" height="43.81729160210722" data-palette-color="url(#4fc2b4d8-02fb-45fd-bb26-05d2a1b461b0)"><g class="wordmark-text-0" data-fill-palette-color="primary" id="SvgjsG1727"><path d="M25.5-2.15L31.9-2.15 31.9 0 0 0 0-2.15 6.8-2.15Q4.05-3.55 1.8-5.75L1.8-5.75 6.45-11.45Q12.1-6.5 16.9-6.5L16.9-6.5Q19.05-6.5 20.28-7.43 21.5-8.35 21.5-9.93 21.5-11.5 20.2-12.43 18.9-13.35 15.05-14.3L15.05-14.3Q8.95-15.75 6.13-18.07 3.3-20.4 3.3-25.38 3.3-30.35 6.88-33.05 10.45-35.75 15.8-35.75L15.8-35.75Q19.3-35.75 22.8-34.55 26.3-33.35 28.9-31.15L28.9-31.15 24.95-25.45Q20.4-28.9 15.55-28.9L15.55-28.9Q13.6-28.9 12.48-27.98 11.35-27.05 11.35-25.53 11.35-24 12.73-23.1 14.1-22.2 19.07-20.98 24.05-19.75 26.8-17.3 29.55-14.85 29.55-10.5L29.55-10.5Q29.55-5.1 25.5-2.15L25.5-2.15ZM71.55-2.15L82.85-2.15 82.85 0 65 0 57.35-24.3 49.75 0 31.9 0 31.9-2.15 43.2-2.15 31.75-34.95 40.2-34.95 47.1-14.85 53.3-34.95 61.45-34.95 67.6-14.85 74.55-34.95 83-34.95 71.55-2.15ZM94.94-2.15L99.25-2.15 99.25 0 82.84 0 82.84-2.15 87.14-2.15 87.14-34.95 94.94-34.95 94.94-2.15ZM111.34-2.15L129.84-2.15 129.84 0 99.24 0 99.24-2.15 103.54-2.15 103.54-34.95 127.54-34.95 127.54-28.1 111.34-28.1 111.34-20.55 126.74-20.55 126.74-13.7 111.34-13.7 111.34-2.15ZM148.94-2.15L160.24-2.15 160.24 0 129.84 0 129.84-2.15 141.14-2.15 141.14-28.2 131.24-28.2 131.24-34.95 158.84-34.95 158.84-28.2 148.94-28.2 148.94-2.15ZM185.74-2.15L192.14-2.15 192.14 0 160.24 0 160.24-2.15 167.04-2.15Q164.29-3.55 162.04-5.75L162.04-5.75 166.69-11.45Q172.34-6.5 177.14-6.5L177.14-6.5Q179.29-6.5 180.51-7.43 181.74-8.35 181.74-9.93 181.74-11.5 180.44-12.43 179.14-13.35 175.29-14.3L175.29-14.3Q169.19-15.75 166.36-18.07 163.54-20.4 163.54-25.38 163.54-30.35 167.11-33.05 170.69-35.75 176.04-35.75L176.04-35.75Q179.54-35.75 183.04-34.55 186.54-33.35 189.14-31.15L189.14-31.15 185.19-25.45Q180.64-28.9 175.79-28.9L175.79-28.9Q173.84-28.9 172.71-27.98 171.59-27.05 171.59-25.53 171.59-24 172.96-23.1 174.34-22.2 179.31-20.98 184.29-19.75 187.04-17.3 189.79-14.85 189.79-10.5L189.79-10.5Q189.79-5.1 185.74-2.15L185.74-2.15ZM211.24-2.15L222.54-2.15 222.54 0 192.14 0 192.14-2.15 203.44-2.15 203.44-28.2 193.54-28.2 193.54-34.95 221.14-34.95 221.14-28.2 211.24-28.2 211.24-2.15ZM259.08-2.15L264.88-2.15 264.88 0 251.73 0 248.48-7.55 233.83-7.55 230.58 0 217.43 0 217.43-2.15 223.18-2.15 237.38-34.95 244.93-34.95 259.08-2.15ZM245.53-14.4L241.18-24.55 236.78-14.4 245.53-14.4ZM259.23-2.15L264.08-2.15 264.08-34.95 277.33-34.95Q285.48-34.95 288.96-32.2 292.43-29.45 292.43-23.35L292.43-23.35Q292.43-14.95 285.78-12.5L285.78-12.5 293.08-2.15 297.78-2.15 297.78 0 285.03 0 277.28-11.15 271.88-11.15 271.88 0 259.23 0 259.23-2.15ZM277.58-17.9Q281.58-17.9 283.03-19.2 284.48-20.5 284.48-23.33 284.48-26.15 282.98-27.2 281.48-28.25 277.73-28.25L277.73-28.25 271.88-28.25 271.88-17.9 277.58-17.9ZM315.23-2.15L326.53-2.15 326.53 0 296.13 0 296.13-2.15 307.43-2.15 307.43-28.2 297.53-28.2 297.53-34.95 325.13-34.95 325.13-28.2 315.23-28.2 315.23-2.15Z" fill="white"></path></g></svg></g></svg></g></svg></g></svg></g><g transform="matrix(1,0,0,1,160.17588854372246,0)"><svg viewBox="0 0 75.16822291255504 75.16822291255504" height="75.16822291255504" width="75.16822291255504"><g><svg></svg></g><g id="SvgjsG1726"><svg viewBox="0 0 75.16822291255504 75.16822291255504" height="75.16822291255504" width="75.16822291255504"><g></g><g transform="matrix(1,0,0,1,18.15340570395404,20.283720955779785)"><svg viewBox="0 0 38.86141150464696 34.60078100099547" height="34.60078100099547" width="38.86141150464696"><g><svg xmlns="http://www.w3.org/2000/svg" xmlns:xlink="http://www.w3.org/1999/xlink" version="1.1" x="0" y="0" viewBox="14.600000381469727 17.53370475769043 75.0999984741211 66.86629486083984" enable-background="new 0 0 100 100" xml:space="preserve" height="34.60078100099547" width="38.86141150464696" class="icon-s-0" data-fill-palette-color="accent" id="SvgjsSvg1725"></svg></g></svg></g></svg></g></svg></g><g></g></svg></g><defs></defs></svg></g></mask><linearGradient x1="0" x2="1" y1="0.548" y2="0.55" id="4fc2b4d8-02fb-45fd-bb26-05d2a1b461b0"><stop stop-color="#ff6cab" offset="0"></stop><stop stop-color="#7366ff" offset="1"></stop></linearGradient><rect width="395.5199890136719" height="139.67393493652344" fill="#ffffff" mask="url(#fd86f965-fe10-4e49-a07b-0147afa660f9)" data-fill-palette-color="primary"></rect><mask id="84011c00-e0fa-4f53-8884-970bce66cb7b"><g id="SvgjsG1742"><svg viewBox="0 0 395.52 139.6739363791804" height="139.6739363791804" width="395.52"><g><svg viewBox="0 0 395.52 139.6739363791804" height="139.6739363791804" width="395.52"><g transform="matrix(1,0,0,1,0,95.85664477707317)"><svg viewBox="0 0 395.52 43.81729160210722" height="43.81729160210722" width="395.52"><g id="SvgjsG1741"><svg viewBox="0 0 395.52 43.81729160210722" height="43.81729160210722" width="395.52" id="SvgjsSvg1740"><g><svg viewBox="0 0 395.52 43.81729160210722" height="43.81729160210722" width="395.52"><g transform="matrix(1,0,0,1,0,0)"><svg width="395.52" viewBox="0 -35.75 326.5299987792969 35.75" height="43.81729160210722" data-palette-color="url(#4fc2b4d8-02fb-45fd-bb26-05d2a1b461b0)"><g class="wordmark-text-0" data-fill-palette-color="primary" id="SvgjsG1739"></g></svg></g></svg></g></svg></g></svg></g><g transform="matrix(1,0,0,1,160.17588854372246,0)"><svg viewBox="0 0 75.16822291255504 75.16822291255504" height="75.16822291255504" width="75.16822291255504"><g><svg></svg></g><g id="SvgjsG1738"><svg viewBox="0 0 75.16822291255504 75.16822291255504" height="75.16822291255504" width="75.16822291255504"><g><path d="M0 37.584c0-20.757 16.827-37.584 37.584-37.584 20.757 0 37.584 16.827 37.584 37.584 0 20.757-16.827 37.584-37.584 37.584-20.757 0-37.584-16.827-37.584-37.584zM37.584 71.217c18.575 0 33.633-15.058 33.633-33.633 0-18.575-15.058-33.633-33.633-33.633-18.575 0-33.633 15.058-33.633 33.633 0 18.575 15.058 33.633 33.633 33.633z" fill="white" stroke="transparent"></path></g><g transform="matrix(1,0,0,1,18.15340570395404,20.283720955779785)"><svg viewBox="0 0 38.86141150464696 34.60078100099547" height="34.60078100099547" width="38.86141150464696"><g><svg xmlns="http://www.w3.org/2000/svg" xmlns:xlink="http://www.w3.org/1999/xlink" version="1.1" x="0" y="0" viewBox="14.600000381469727 17.53370475769043 75.0999984741211 66.86629486083984" enable-background="new 0 0 100 100" xml:space="preserve" height="34.60078100099547" width="38.86141150464696" class="icon-s-0" data-fill-palette-color="accent" id="SvgjsSvg1737"><g fill="white"><g fill="white"><path d="M89.7 17.7c-0.9 16-4.5 27.3-20.5 40.3 0 6.8-2.7 13.6-8.2 18.4l-9.1-10.2c-1.9 1.8-4.4 2.7-6.8 2.8-3.2 0.1-6.3-1.1-8.6-3.6-4-4.5-3.6-11.4 0.8-15.4l-9.1-10.2c5.5-4.9 12.5-6.9 19.3-6.1C62.1 19.2 73.7 16.8 89.7 17.7zM73.1 42.3c3-2.7 3.2-7.2 0.6-10.2-1.5-1.6-3.5-2.5-5.7-2.4-1.7 0.1-3.3 0.7-4.5 1.8-3 2.7-3.2 7.2-0.6 10.2 1.5 1.6 3.5 2.5 5.7 2.4C70.2 44 71.8 43.4 73.1 42.3z" fill="white"></path></g></g><g fill="white"><path d="M14.6 84.4l0.5-1.6c0.1-0.4 2.9-9.9 6.5-13.6 2-2 4.4-3.1 6.6-3.1 1.4 0 2.5 0.4 3.4 1.3 2.3 2.3 1.5 6.7-1.8 10-3.9 3.9-13.2 6.4-13.6 6.6L14.6 84.4z" fill="white"></path></g></svg></g></svg></g></svg></g></svg></g><g></g></svg></g><defs></defs><mask><g id="SvgjsG1736"><svg viewBox="0 0 395.52 139.6739363791804" height="139.6739363791804" width="395.52"><g><svg viewBox="0 0 395.52 139.6739363791804" height="139.6739363791804" width="395.52"><g transform="matrix(1,0,0,1,0,95.85664477707317)"><svg viewBox="0 0 395.52 43.81729160210722" height="43.81729160210722" width="395.52"><g id="SvgjsG1735"><svg viewBox="0 0 395.52 43.81729160210722" height="43.81729160210722" width="395.52" id="SvgjsSvg1734"><g><svg viewBox="0 0 395.52 43.81729160210722" height="43.81729160210722" width="395.52"><g transform="matrix(1,0,0,1,0,0)"><svg width="395.52" viewBox="0 -35.75 326.5299987792969 35.75" height="43.81729160210722" data-palette-color="url(#4fc2b4d8-02fb-45fd-bb26-05d2a1b461b0)"><g class="wordmark-text-0" data-fill-palette-color="primary" id="SvgjsG1733"></g></svg></g></svg></g></svg></g></svg></g><g transform="matrix(1,0,0,1,160.17588854372246,0)"><svg viewBox="0 0 75.16822291255504 75.16822291255504" height="75.16822291255504" width="75.16822291255504"><g><svg></svg></g><g id="SvgjsG1732"><svg viewBox="0 0 75.16822291255504 75.16822291255504" height="75.16822291255504" width="75.16822291255504"><g></g><g transform="matrix(1,0,0,1,18.15340570395404,20.283720955779785)"><svg viewBox="0 0 38.86141150464696 34.60078100099547" height="34.60078100099547" width="38.86141150464696"><g><svg xmlns="http://www.w3.org/2000/svg" xmlns:xlink="http://www.w3.org/1999/xlink" version="1.1" x="0" y="0" viewBox="14.600000381469727 17.53370475769043 75.0999984741211 66.86629486083984" enable-background="new 0 0 100 100" xml:space="preserve" height="34.60078100099547" width="38.86141150464696" class="icon-s-0" data-fill-palette-color="accent" id="SvgjsSvg1731"></svg></g></svg></g></svg></g></svg></g><g></g></svg></g><defs></defs></svg></g></mask></svg></g></mask><linearGradient x1="0" x2="1" y1="0.548" y2="0.55" id="ff869271-d718-48d3-8a39-a198fb5c5c76"><stop stop-color="#ff6cab" offset="0"></stop><stop stop-color="#7366ff" offset="1"></stop></linearGradient><rect width="395.5199890136719" height="139.67393493652344" fill="#ffffff" mask="url(#84011c00-e0fa-4f53-8884-970bce66cb7b)" data-fill-palette-color="accent"></rect></svg><rect width="395.52" height="139.6739363791804" fill="none" stroke="none" visibility="hidden"></rect></g></svg></g></svg>